<?xml version="1.0" standalone="no"?>
<!DOCTYPE svg PUBLIC "-//W3C//DTD SVG 20010904//EN"
 "http://www.w3.org/TR/2001/REC-SVG-20010904/DTD/svg10.dtd">
<svg version="1.0" xmlns="http://www.w3.org/2000/svg"
 width="2481.000000pt" height="3508.000000pt" viewBox="0 0 2481.000000 3508.000000"
 preserveAspectRatio="xMidYMid meet">

<g transform="translate(0.000000,3508.000000) scale(0.100000,-0.100000)"
fill="#000000" stroke="none">
<path d="M11795 27240 c-949 -5 -1382 -10 -1433 -18 -362 -57 -618 -128 -879
-245 -549 -245 -1001 -706 -1269 -1297 -130 -286 -203 -571 -234 -910 -7 -78
-10 -2254 -10 -6802 l0 -6688 -349 0 c-363 0 -467 -8 -557 -41 -153 -58 -231
-185 -222 -363 7 -139 71 -241 184 -293 124 -56 -235 -53 5139 -53 4412 0
4957 2 5010 15 135 35 213 95 264 204 22 48 26 69 25 151 -1 198 -87 304 -287
357 -50 13 -138 17 -442 22 l-380 6 -3 1309 c-1 743 2 1314 7 1319 5 5 43 -9
89 -32 664 -334 1197 -443 1762 -361 570 83 1092 299 1520 630 119 92 422 394
521 520 422 535 665 1106 755 1775 22 164 25 606 5 770 -41 343 -138 728 -277
1103 -87 233 -146 368 -275 622 -280 556 -641 1075 -1288 1855 -247 297 -500
651 -683 955 -240 399 -524 982 -578 1186 -37 144 -42 228 -50 954 -8 774 -7
766 -65 880 -36 72 -79 116 -143 147 -48 23 -72 28 -157 31 -85 3 -109 0 -159
-19 -76 -28 -147 -94 -182 -166 -55 -117 -55 -128 -51 -982 3 -770 4 -788 26
-885 49 -219 144 -459 336 -853 314 -644 648 -1158 1149 -1767 357 -435 663
-841 858 -1141 381 -583 655 -1250 752 -1825 98 -583 21 -1135 -230 -1640
-139 -280 -292 -491 -528 -725 -419 -417 -878 -635 -1428 -677 -427 -33 -858
67 -1263 294 -229 128 -325 207 -383 317 -67 124 -62 -301 -62 4986 0 3207 -3
4837 -10 4910 -28 297 -114 627 -240 921 -248 578 -692 1024 -1283 1286 -233
103 -525 190 -747 222 -291 42 -472 45 -2255 36z m2095 -774 c444 -56 806
-227 1106 -524 314 -310 517 -741 563 -1192 11 -112 26 -7415 15 -7617 l-7
-133 -3413 0 -3413 0 -6 53 c-3 28 -4 1769 -3 3867 3 3595 5 3821 21 3924 78
476 270 845 587 1130 294 264 754 457 1176 494 54 5 810 10 1679 11 1318 1
1600 -1 1695 -13z m1468 -10263 l202 -6 0 -2449 0 -2448 -3405 0 -3405 0 0
2450 0 2450 288 3 c636 6 6131 6 6320 0z"/>
<path d="M10805 25720 c-218 -6 -290 -11 -376 -28 -266 -55 -464 -155 -618
-313 -157 -162 -245 -360 -298 -674 -17 -105 -18 -219 -18 -2390 0 -1691 3
-2296 12 -2340 35 -183 104 -260 278 -312 57 -17 184 -18 2300 -21 1513 -2
2270 0 2331 7 186 22 285 75 339 182 58 113 56 64 62 2004 5 1944 -4 2801 -32
2945 -37 194 -116 379 -222 518 -186 244 -499 392 -893 422 -147 11 -2403 11
-2865 0z m2895 -774 c126 -20 165 -33 212 -69 52 -40 92 -102 115 -182 16 -56
18 -153 21 -1407 l3 -1348 -1895 0 -1894 0 -7 133 c-3 72 -5 672 -3 1332 4
1068 6 1207 20 1267 20 81 38 117 85 169 58 64 120 90 273 113 14 2 691 4
1505 5 1218 1 1495 -2 1565 -13z m330 -4166 l0 -360 -1880 0 -1880 0 0 360 0
360 1880 0 1880 0 0 -360z"/>
<path d="M11289 24187 c-109 -31 -207 -120 -233 -211 -23 -78 -32 -377 -23
-716 9 -341 15 -381 72 -447 43 -51 137 -99 222 -115 156 -29 329 53 391 186
39 83 44 151 40 602 -5 509 -4 502 -101 599 -46 46 -78 68 -122 84 -73 28
-183 36 -246 18z"/>
<path d="M12806 24181 c-123 -41 -208 -125 -244 -241 -15 -48 -17 -109 -17
-505 0 -445 0 -451 23 -506 32 -80 73 -133 134 -174 147 -97 354 -80 474 39
97 97 113 190 114 641 0 466 -16 563 -110 654 -100 97 -248 133 -374 92z"/>
</g>
</svg>
