<?xml version="1.0" encoding="UTF-8"?>
<svg id="GasStation" xmlns="http://www.w3.org/2000/svg" version="1.1" viewBox="0 0 300 300">
  <defs>
    <style>
      .cls-1 {
        fill: #000;
        stroke-width: 0px;
      }
    </style>
  </defs>
  <path id="icon:3" class="cls-1" d="M148.7,39.2v2.4l9.2,19.2-1.9,16.3,10.1,11.7v64.3c0,5.5-4.4,10-9.9,10h-9.4V18.7h18.1V5.9H24.4v12.8h20.1v165.2h-8.6v10.3h117.7v-10.3h-6.7v-12.3h9.4c10.2,0,18.4-8.3,18.4-18.5v-68.2l1-1v-15.4l-26.9-29.4h-.1ZM62.9,136.7h-5.7v-5.7h5.7v5.7ZM62.9,128.2h-5.7v-5.7h5.7v5.7ZM62.9,119.6h-5.7v-5.7h5.7v5.7ZM74.3,136.7h-5.7v-5.7h5.7v5.7ZM74.3,128.2h-5.7v-5.7h5.7v5.7ZM74.3,119.6h-5.7v-5.7h5.7v5.7ZM85.7,136.7h-5.7v-5.7h5.7v5.7ZM85.7,128.2h-5.7v-5.7h5.7v5.7ZM85.7,119.6h-5.7v-5.7h5.7v5.7ZM85.7,110.8h-28.5v-5h28.5v5ZM130.6,97.8H58.8v-34.5h71.8v34.5ZM139.2,48.6H52.2v-29.9h87v29.9Z"/>
</svg>
