<svg version="1.1" id="Layer_1" xmlns="http://www.w3.org/2000/svg" xmlns:xlink="http://www.w3.org/1999/xlink" x="0px" y="0px"
	 width="100" height="100" viewBox="0 0 7087 7087" enable-background="new 0 0 7087 7087" xml:space="preserve">
<path fill="#FFFFFF" opacity="1.000000" stroke="none" color="#fff"
	d="
M4.000000,2488.000000
	C4.000000,1658.666626 4.000000,831.333313 4.000000,4.000000
	C2366.666748,4.000000 4729.333496,4.000000 7092.000000,4.000000
	C7092.000000,2366.666748 7092.000000,4729.333496 7092.000000,7092.000000
	C4729.333496,7092.000000 2366.666748,7092.000000 4.000001,7092.000000
	C4.000000,5558.000000 4.000000,4024.000000 4.000000,2488.000000
M6214.231934,3631.780273
	C6151.916504,3468.123047 6084.129395,3306.814697 6007.660156,3149.209717
	C5942.214355,3014.325684 5871.288574,2882.442383 5791.808594,2755.274414
	C5687.926270,2589.062744 5569.586914,2434.370850 5426.428711,2299.629639
	C5376.885254,2252.999512 5325.282715,2208.818604 5269.770020,2169.367676
	C5266.774902,2167.239014 5264.243164,2163.243652 5258.891602,2164.930176
	C5258.194336,2166.234619 5256.984375,2167.800781 5256.466797,2169.569580
	C5246.935547,2202.146240 5237.631836,2234.790283 5227.939453,2267.318604
	C5224.719727,2278.124756 5221.449707,2289.075928 5216.625977,2299.210449
	C5206.020996,2321.492920 5189.324707,2330.153564 5164.704102,2327.461670
	C5160.749023,2327.029053 5156.883789,2325.747070 5152.928223,2325.346924
	C5149.284668,2324.978516 5145.574219,2325.268799 5141.452637,2325.268799
	C5146.602051,2346.190186 5152.957031,2365.767578 5161.340332,2384.681152
	C5182.375977,2432.139648 5203.410645,2479.598877 5224.384277,2527.085205
	C5370.391113,2857.659424 5516.391113,3188.236816 5662.363770,3518.826416
	C5677.688477,3553.532959 5692.941895,3588.272461 5707.992676,3623.098389
	C5717.114746,3644.205811 5721.242188,3666.071777 5718.973633,3689.318604
	C5716.323730,3716.469238 5714.941895,3743.745361 5713.124023,3770.974854
	C5708.954590,3833.413086 5704.839355,3895.854980 5700.730469,3958.297363
	C5696.840332,4017.420898 5693.034180,4076.549805 5689.104004,4135.670410
	C5683.672363,4217.375977 5678.149902,4299.074707 5672.684082,4380.777344
	C5668.817383,4438.567383 5664.930176,4496.355957 5661.145996,4554.151367
	C5656.534668,4624.571289 5652.036621,4694.999512 5647.454590,4765.421875
	C5645.941895,4788.676270 5644.354004,4811.926270 5642.738770,4835.173828
	C5639.093750,4887.638184 5635.465820,4940.104004 5631.723145,4992.561523
	C5628.785645,5033.736816 5625.772461,5074.907715 5622.584961,5116.064453
	C5621.986328,5123.795410 5620.408691,5131.450684 5619.143555,5140.090820
	C5609.413574,5140.090820 5600.820801,5140.090820 5592.228027,5140.090820
	C4231.568359,5140.090820 2870.908447,5140.091309 1510.248657,5140.090820
	C1504.915405,5140.090820 1499.575684,5140.248047 1494.250977,5140.034180
	C1490.498047,5139.883301 1486.765381,5139.228516 1482.288208,5138.713867
	C1481.807251,5133.616699 1481.351807,5129.735840 1481.087402,5125.842285
	C1476.983765,5065.400879 1472.895142,5004.958008 1468.822998,4944.514648
	C1464.885010,4886.062500 1460.929443,4827.611328 1457.054565,4769.155762
	C1452.430908,4699.404297 1447.883301,4629.647461 1443.305786,4559.893066
	C1441.779785,4536.639160 1440.349121,4513.377930 1438.725830,4490.130371
	C1433.995972,4422.398438 1429.056763,4354.680664 1424.459961,4286.939453
	C1421.034180,4236.456055 1418.157715,4185.936035 1414.776123,4135.449707
	C1410.193604,4067.037842 1405.249878,3998.650146 1400.674561,3930.237793
	C1397.298340,3879.753906 1394.339355,3829.241943 1391.046997,3778.752197
	C1389.271484,3751.521240 1387.606567,3724.271973 1385.125977,3697.100830
	C1382.519409,3668.549072 1387.318970,3641.754639 1398.950195,3615.455078
	C1492.362061,3404.237549 1585.327148,3192.822510 1678.544922,2981.519043
	C1765.040283,2785.453613 1851.747192,2589.481445 1938.134277,2393.368408
	C1945.629272,2376.353271 1951.531250,2358.629150 1957.931519,2341.145996
	C1959.209595,2337.654541 1959.385742,2333.759766 1960.202148,2329.334229
	C1955.896851,2328.656738 1952.645508,2328.234863 1949.430298,2327.623291
	C1937.672607,2325.386963 1925.868530,2323.349121 1914.191895,2320.743652
	C1900.891602,2317.775879 1891.644775,2309.556885 1886.598877,2296.984131
	C1882.887451,2287.737061 1879.414062,2278.359375 1876.483521,2268.840088
	C1866.890747,2237.679688 1857.638306,2206.415039 1848.126709,2175.229492
	C1847.010132,2171.568115 1845.096436,2168.150146 1842.998169,2163.352783
	C1833.267822,2169.989990 1824.265869,2175.578125 1815.858398,2181.950684
	C1727.439819,2248.970703 1646.791992,2324.434814 1572.276001,2406.544922
	C1471.636108,2517.440674 1384.376221,2638.294189 1305.636353,2765.439453
	C1234.766602,2879.875732 1170.610352,2998.007568 1111.525024,3118.942383
	C1074.694580,3194.325928 1039.785767,3270.568604 1006.455383,3347.551270
	C925.751709,3533.950439 855.132019,3724.227051 788.248718,3915.924561
	C780.596619,3937.856689 774.180969,3960.395996 769.479919,3983.126953
	C765.587463,4001.947998 765.226074,4021.484619 763.031738,4040.673828
	C755.833923,4103.617188 755.029785,4166.895508 753.378906,4230.109375
	C752.771301,4253.373535 753.894226,4276.707520 754.859802,4299.983398
	C756.764038,4345.883789 758.961182,4391.772949 761.353516,4437.650391
	C762.185242,4453.599609 763.778564,4469.516113 765.323792,4485.418945
	C770.025330,4533.801758 774.918640,4582.166504 779.651123,4630.546875
	C784.189148,4676.939941 788.399170,4723.366211 793.152832,4769.736816
	C799.060791,4827.367676 805.464050,4884.948242 811.495911,4942.566406
	C817.459167,4999.529297 823.045959,5056.530762 829.126343,5113.480957
	C836.267212,5180.363770 843.820740,5247.202148 851.087646,5314.071289
	C859.145813,5388.222656 866.462219,5462.461426 875.257568,5536.524414
	C883.031189,5601.984375 892.362854,5667.259277 901.119629,5732.601074
	C901.732422,5737.172852 903.280334,5741.619629 904.723877,5747.462402
	C2665.367432,5747.462402 4425.948242,5747.462891 6186.528809,5747.423340
	C6190.425293,5747.423340 6194.321289,5746.839844 6199.174805,5746.452637
	C6200.801758,5736.794434 6202.640137,5727.740723 6203.811523,5718.601562
	C6208.384277,5682.929688 6212.579102,5647.209473 6217.227051,5611.547363
	C6223.165527,5565.984375 6229.547852,5520.479492 6235.480469,5474.915527
	C6242.788574,5418.784180 6249.839355,5362.618652 6256.985352,5306.465820
	C6264.468262,5247.670898 6272.330566,5188.920410 6279.287598,5130.063477
	C6285.697754,5075.833008 6291.493652,5021.522461 6296.891602,4967.181152
	C6303.341797,4902.252441 6309.629395,4837.297852 6314.965820,4772.270996
	C6319.703125,4714.555176 6323.497559,4656.751465 6326.888184,4598.938477
	C6331.292480,4523.847168 6335.028320,4448.715820 6338.774902,4373.587402
	C6341.162598,4325.707031 6342.750488,4277.786621 6345.243164,4229.912598
	C6347.771973,4181.343262 6349.639648,4132.774902 6349.245605,4084.128418
	C6348.854004,4035.807373 6341.466309,3988.823486 6325.703125,3942.949463
	C6290.230469,3839.718750 6253.859375,3736.819092 6214.231934,3631.780273
M1399.950073,398.124146
	C1401.298462,402.585815 1402.645142,407.047974 1403.995361,411.509064
	C1475.499390,647.773132 1547.178467,883.984375 1618.450684,1120.318359
	C1671.477905,1296.152832 1723.989380,1472.142822 1776.709961,1648.069824
	C1832.297729,1833.565186 1887.850830,2019.071045 1943.473389,2204.556152
	C1945.569336,2211.545654 1947.979614,2218.466309 1950.683960,2225.243164
	C1957.564453,2242.485352 1970.664551,2251.330322 1988.991455,2252.458008
	C1996.299316,2252.907959 2003.646118,2252.826416 2010.974976,2252.820312
	C2265.610596,2252.601807 2520.246094,2252.326904 2774.881592,2252.143066
	C2899.538330,2252.052979 3024.194824,2252.081055 3148.851562,2252.135742
	C3640.134521,2252.351318 4131.417480,2252.616699 4622.700684,2252.823975
	C4780.687988,2252.890625 4938.675781,2252.846191 5096.663086,2252.800537
	C5104.651367,2252.798096 5112.663086,2252.589600 5120.623535,2251.965088
	C5134.374512,2250.885742 5144.647461,2244.020020 5150.282227,2231.458740
	C5154.080566,2222.991943 5157.007812,2214.077393 5159.679688,2205.169678
	C5235.965332,1950.846924 5312.071289,1696.470093 5388.415527,1442.165039
	C5453.273926,1226.120361 5518.416992,1010.161255 5583.384766,794.149658
	C5624.590332,657.146912 5665.697266,520.114624 5706.869141,383.101654
	C5712.051758,365.854309 5716.623047,348.448792 5718.095215,330.457092
	C5721.289551,291.437195 5712.208008,256.303223 5683.696777,227.974670
	C5665.817383,210.209839 5643.799316,199.421387 5619.966309,191.973724
	C5591.012695,182.925919 5561.114258,180.900635 5531.126953,180.898209
	C4205.899414,180.790558 2880.672119,180.805191 1555.444702,180.805206
	C1552.111572,180.805206 1548.774536,180.698074 1545.446045,180.822540
	C1516.534790,181.903671 1488.457275,187.196960 1462.383423,199.994919
	C1412.359985,224.548111 1386.154175,264.679657 1385.176636,320.806854
	C1384.728760,346.517792 1390.850464,370.949341 1399.950073,398.124146
M3814.000000,5012.125488
	C4371.877441,5012.125488 4929.754395,5012.125488 5488.257812,5012.125488
	C5489.255371,5004.232422 5490.381836,4997.710449 5490.863770,4991.141602
	C5496.462891,4914.788574 5502.097168,4838.437012 5507.445312,4762.065918
	C5510.840332,4713.582031 5513.762695,4665.065430 5516.917969,4616.564453
	C5518.344238,4594.641602 5519.723633,4572.714355 5521.299316,4550.802246
	C5524.688477,4503.664551 5528.369629,4456.546875 5531.597168,4409.398438
	C5535.007812,4359.580566 5537.836914,4309.723145 5541.270508,4259.906738
	C5545.846680,4193.504395 5550.899902,4127.135742 5555.485352,4060.734131
	C5558.924805,4010.922607 5561.897949,3961.079346 5565.179688,3911.256836
	C5566.710938,3888.013184 5568.030762,3864.741943 5570.248535,3841.560059
	C5573.544922,3807.104248 5577.159668,3772.668213 5581.384766,3738.315674
	C5584.714355,3711.245361 5581.640625,3685.170898 5571.766602,3659.905762
	C5561.836426,3634.497803 5552.507812,3608.783936 5541.120117,3584.030273
	C5515.813965,3529.020752 5489.401855,3474.519531 5463.398438,3419.831299
	C5458.015137,3408.508057 5452.448730,3397.271729 5446.569336,3385.178955
	C5424.555664,3398.915039 5403.647461,3411.892822 5382.807617,3424.978516
	C5325.989258,3460.656006 5275.734375,3504.054688 5231.136230,3554.093994
	C5173.028809,3619.290527 5127.746094,3692.728027 5091.098633,3771.739990
	C5055.977539,3847.461182 5029.267578,3926.156982 5007.932129,4006.742188
	C4975.778320,4128.190430 4957.958984,4252.000000 4948.730957,4377.069336
	C4944.813965,4430.150391 4943.576660,4483.429199 4941.187988,4536.621094
	C4940.291504,4556.581055 4939.716797,4576.556641 4938.698730,4596.509277
	C4938.438965,4601.611328 4937.054688,4606.656250 4936.210938,4611.584473
	C4933.148926,4612.108887 4931.216309,4612.730469 4929.284180,4612.730469
	C4008.674561,4612.712402 3088.064697,4612.651855 2167.455078,4612.567871
	C2166.849365,4612.567871 2166.198486,4612.280273 2165.650879,4611.978516
	C2165.075439,4611.662109 2164.598633,4611.166504 2162.615479,4609.573242
	C2162.615479,4599.574219 2163.321533,4588.316895 2162.497314,4577.173340
	C2158.126465,4518.088379 2153.073730,4459.053711 2148.824219,4399.960449
	C2143.665283,4328.222656 2137.688965,4256.586914 2128.768311,4185.190918
	C2121.082031,4123.674316 2110.709473,4062.696777 2095.871094,4002.502441
	C2070.888428,3901.155762 2034.581421,3804.159180 1983.082642,3713.196045
	C1939.218506,3635.717773 1887.799683,3563.881104 1822.524902,3502.645996
	C1778.523682,3461.367676 1729.970337,3426.576660 1676.207886,3399.127441
	C1669.819092,3395.865479 1663.342041,3392.776123 1656.060547,3389.190674
	C1653.536011,3393.583252 1651.384155,3396.787354 1649.757935,3400.239014
	C1629.907471,3442.373779 1609.932617,3484.451904 1590.402832,3526.735352
	C1573.657104,3562.990967 1557.197632,3599.383789 1541.082275,3635.923584
	C1530.487305,3659.946289 1524.216797,3685.373047 1525.778687,3711.599854
	C1529.695557,3777.377686 1534.893555,3843.078857 1539.458496,3908.818848
	C1543.378418,3965.266357 1547.077148,4021.729248 1550.974609,4078.178223
	C1556.339600,4155.882324 1561.791260,4233.580566 1567.221313,4311.280273
	C1571.166260,4367.727539 1575.180054,4424.169922 1579.083496,4480.620117
	C1583.676025,4547.038086 1588.178589,4613.461914 1592.728882,4679.882812
	C1594.230591,4701.803223 1595.680054,4723.727051 1597.292725,4745.639160
	C1600.712524,4792.106445 1604.226685,4838.565918 1607.697266,4885.028809
	C1610.672974,4924.865723 1613.622559,4964.704590 1616.671509,5004.536133
	C1616.815186,5006.411621 1617.811035,5008.221680 1618.288330,5009.688965
	C1619.911499,5010.536133 1621.041138,5011.642090 1622.170898,5011.642578
	C2351.447266,5011.853027 3080.723633,5011.988770 3814.000000,5012.125488
M1965.999023,6294.342773
	C3363.884277,6294.342773 4761.769531,6294.349121 6159.654785,6294.253418
	C6172.941406,6294.252441 6186.326172,6293.685547 6199.498047,6292.041992
	C6262.743164,6284.146973 6298.796875,6245.689941 6308.964844,6192.202148
	C6312.735352,6172.368652 6312.856445,6152.510742 6312.916992,6132.551270
	C6313.051758,6087.911133 6312.413574,6043.252441 6313.615234,5998.642090
	C6314.028809,5983.274414 6314.474609,5968.105957 6312.238281,5952.932129
	C6304.829590,5902.652832 6278.421387,5866.961426 6230.648926,5848.285156
	C6208.093262,5839.467285 6184.431152,5835.978027 6160.207031,5836.068848
	C6082.891113,5836.359863 6005.575195,5836.624512 5928.259277,5836.786621
	C5680.315918,5837.307617 5432.372070,5838.207520 5184.428711,5838.162109
	C4855.828125,5838.102051 4527.227539,5836.920898 4198.626953,5836.866699
	C3112.716064,5836.687988 2026.805420,5836.786133 940.894592,5836.933105
	C925.628540,5836.935059 910.145203,5837.675781 895.136658,5840.249023
	C846.255981,5848.631836 812.924072,5876.021484 797.792053,5923.891602
	C793.364868,5937.896973 791.570984,5952.431152 791.600098,5967.225586
	C791.732544,6034.553711 791.424194,6101.882812 791.871399,6169.208008
	C791.954712,6181.740723 793.617310,6194.537598 796.572754,6206.721680
	C803.188171,6233.994141 818.843140,6254.800293 844.545227,6267.234375
	C876.651428,6282.766602 909.957947,6292.911621 946.185242,6292.956543
	C1154.800659,6293.215820 1363.415405,6293.951660 1572.030884,6294.302246
	C1702.019897,6294.520508 1832.009399,6294.342773 1965.999023,6294.342773
M5322.416504,3067.382812
	C5322.822266,3056.260742 5317.184082,3047.015625 5312.958496,3037.373779
	C5221.331055,2828.314697 5129.662598,2619.273926 5037.997559,2410.231445
	C5035.326172,2404.139404 5032.769043,2397.989502 5029.870605,2392.006348
	C5024.123535,2380.142334 5014.250488,2374.070557 5001.371582,2373.028320
	C4994.746094,2372.491943 4988.048340,2372.815918 4981.383301,2372.815918
	C4280.772461,2372.810059 3580.161621,2372.852295 2879.550781,2372.777832
	C2723.572266,2372.761230 2567.593506,2372.283203 2411.614990,2372.117676
	C2314.956055,2372.015137 2218.297119,2372.081055 2121.638184,2372.143555
	C2114.987061,2372.147705 2108.258057,2372.223389 2101.702637,2373.193848
	C2089.075684,2375.062500 2079.432373,2381.764648 2073.522461,2393.206787
	C2070.168457,2399.700439 2067.219238,2406.412842 2064.288330,2413.114258
	C2024.820190,2503.354492 1985.512451,2593.665283 1945.915283,2683.848877
	C1891.603271,2807.545654 1837.068115,2931.144287 1782.693237,3054.813477
	C1780.937500,3058.806885 1779.890015,3063.111572 1777.996582,3068.829102
	C1786.930908,3068.829102 1794.195435,3068.829346 1801.459961,3068.829346
	C2966.700439,3068.829346 4131.940918,3068.829346 5297.181641,3068.818848
	C5304.512207,3068.818848 5311.842285,3068.667969 5322.416504,3067.382812
M5987.674316,6670.000000
	C5987.674316,6581.355469 5987.716797,6492.710938 5987.582520,6404.066406
	C5987.572754,6397.683105 5989.606445,6390.797852 5984.507812,6384.091309
	C5977.531738,6384.091309 5970.253906,6384.091309 5962.976562,6384.091309
	C5707.707031,6384.091309 5452.437988,6384.090820 5197.168457,6384.091309
	C5193.169434,6384.091309 5189.154785,6383.872559 5185.176270,6384.160156
	C5181.464355,6384.428223 5177.790527,6385.234375 5173.196289,6385.942871
	C5173.196289,6393.093750 5173.195801,6399.016113 5173.195801,6404.938965
	C5173.195801,6453.593262 5173.020996,6502.249023 5173.234375,6550.902344
	C5173.631348,6641.508301 5174.896484,6732.115723 5174.523438,6822.717773
	C5174.326172,6870.582520 5205.571777,6905.467285 5248.764160,6912.847656
	C5260.507324,6914.854980 5272.551270,6915.933105 5284.463379,6915.988281
	C5349.112793,6916.286133 5413.763672,6916.128906 5478.414062,6916.128906
	C5607.714844,6916.128906 5737.016113,6916.082520 5866.316895,6916.187012
	C5882.362793,6916.199707 5898.252441,6915.250977 5913.978516,6911.985840
	C5951.829102,6904.125000 5975.389160,6881.384766 5983.282715,6843.593750
	C5986.121094,6830.005859 5987.312500,6815.872070 5987.483398,6801.965332
	C5988.008301,6759.315918 5987.674316,6716.655762 5987.674316,6670.000000
M1694.000366,6384.802246
	C1527.377686,6384.802246 1360.755005,6384.801758 1194.132324,6384.802246
	C1172.138184,6384.802246 1150.143188,6384.717773 1128.150513,6384.892090
	C1124.390625,6384.921875 1120.639648,6386.068359 1116.105835,6386.830078
	C1115.643433,6398.953613 1114.847900,6410.223145 1114.839966,6421.493652
	C1114.750977,6546.793457 1114.754150,6672.093750 1114.841064,6797.393555
	C1114.848022,6807.374023 1115.013794,6817.432129 1116.213135,6827.319824
	C1121.598877,6871.727539 1144.759277,6904.318359 1194.627563,6912.704590
	C1207.682739,6914.900391 1221.081909,6915.975098 1234.324829,6915.988770
	C1427.606445,6916.192871 1620.888550,6916.137695 1814.170410,6916.099121
	C1822.161011,6916.097656 1830.207764,6916.170898 1838.131470,6915.313477
	C1860.245972,6912.921875 1881.424316,6907.764648 1898.701050,6892.399414
	C1919.494507,6873.908203 1927.705566,6849.774414 1929.014648,6822.958984
	C1930.150024,6799.700195 1930.656494,6776.392090 1930.727295,6753.103516
	C1930.939941,6683.122559 1930.995239,6613.140625 1930.735474,6543.160156
	C1930.567383,6497.875488 1929.818726,6452.592773 1929.125610,6407.312012
	C1929.016968,6400.208984 1929.223999,6392.879883 1926.112061,6384.802246
	C1849.719238,6384.802246 1773.859863,6384.802246 1694.000366,6384.802246
z"/>
<path fill="#010101" opacity="1.000000" stroke="none"
	d="
M6214.840820,3633.211914
	C6253.859375,3736.819092 6290.230469,3839.718750 6325.703125,3942.949463
	C6341.466309,3988.823486 6348.854004,4035.807373 6349.245605,4084.128418
	C6349.639648,4132.774902 6347.771973,4181.343262 6345.243164,4229.912598
	C6342.750488,4277.786621 6341.162598,4325.707031 6338.774902,4373.587402
	C6335.028320,4448.715820 6331.292480,4523.847168 6326.888184,4598.938477
	C6323.497559,4656.751465 6319.703125,4714.555176 6314.965820,4772.270996
	C6309.629395,4837.297852 6303.341797,4902.252441 6296.891602,4967.181152
	C6291.493652,5021.522461 6285.697754,5075.833008 6279.287598,5130.063477
	C6272.330566,5188.920410 6264.468262,5247.670898 6256.985352,5306.465820
	C6249.839355,5362.618652 6242.788574,5418.784180 6235.480469,5474.915527
	C6229.547852,5520.479492 6223.165527,5565.984375 6217.227051,5611.547363
	C6212.579102,5647.209473 6208.384277,5682.929688 6203.811523,5718.601562
	C6202.640137,5727.740723 6200.801758,5736.794434 6199.174805,5746.452637
	C6194.321289,5746.839844 6190.425293,5747.423340 6186.528809,5747.423340
	C4425.948242,5747.462891 2665.367432,5747.462402 904.723877,5747.462402
	C903.280334,5741.619629 901.732422,5737.172852 901.119629,5732.601074
	C892.362854,5667.259277 883.031189,5601.984375 875.257568,5536.524414
	C866.462219,5462.461426 859.145813,5388.222656 851.087646,5314.071289
	C843.820740,5247.202148 836.267212,5180.363770 829.126343,5113.480957
	C823.045959,5056.530762 817.459167,4999.529297 811.495911,4942.566406
	C805.464050,4884.948242 799.060791,4827.367676 793.152832,4769.736816
	C788.399170,4723.366211 784.189148,4676.939941 779.651123,4630.546875
	C774.918640,4582.166504 770.025330,4533.801758 765.323792,4485.418945
	C763.778564,4469.516113 762.185242,4453.599609 761.353516,4437.650391
	C758.961182,4391.772949 756.764038,4345.883789 754.859802,4299.983398
	C753.894226,4276.707520 752.771301,4253.373535 753.378906,4230.109375
	C755.029785,4166.895508 755.833923,4103.617188 763.031738,4040.673828
	C765.226074,4021.484619 765.587463,4001.947998 769.479919,3983.126953
	C774.180969,3960.395996 780.596619,3937.856689 788.248718,3915.924561
	C855.132019,3724.227051 925.751709,3533.950439 1006.455383,3347.551270
	C1039.785767,3270.568604 1074.694580,3194.325928 1111.525024,3118.942383
	C1170.610352,2998.007568 1234.766602,2879.875732 1305.636353,2765.439453
	C1384.376221,2638.294189 1471.636108,2517.440674 1572.276001,2406.544922
	C1646.791992,2324.434814 1727.439819,2248.970703 1815.858398,2181.950684
	C1824.265869,2175.578125 1833.267822,2169.989990 1842.998169,2163.352783
	C1845.096436,2168.150146 1847.010132,2171.568115 1848.126709,2175.229492
	C1857.638306,2206.415039 1866.890747,2237.679688 1876.483521,2268.840088
	C1879.414062,2278.359375 1882.887451,2287.737061 1886.598877,2296.984131
	C1891.644775,2309.556885 1900.891602,2317.775879 1914.191895,2320.743652
	C1925.868530,2323.349121 1937.672607,2325.386963 1949.430298,2327.623291
	C1952.645508,2328.234863 1955.896851,2328.656738 1960.202148,2329.334229
	C1959.385742,2333.759766 1959.209595,2337.654541 1957.931519,2341.145996
	C1951.531250,2358.629150 1945.629272,2376.353271 1938.134277,2393.368408
	C1851.747192,2589.481445 1765.040283,2785.453613 1678.544922,2981.519043
	C1585.327148,3192.822510 1492.362061,3404.237549 1398.950195,3615.455078
	C1387.318970,3641.754639 1382.519409,3668.549072 1385.125977,3697.100830
	C1387.606567,3724.271973 1389.271484,3751.521240 1391.046997,3778.752197
	C1394.339355,3829.241943 1397.298340,3879.753906 1400.674561,3930.237793
	C1405.249878,3998.650146 1410.193604,4067.037842 1414.776123,4135.449707
	C1418.157715,4185.936035 1421.034180,4236.456055 1424.459961,4286.939453
	C1429.056763,4354.680664 1433.995972,4422.398438 1438.725830,4490.130371
	C1440.349121,4513.377930 1441.779785,4536.639160 1443.305786,4559.893066
	C1447.883301,4629.647461 1452.430908,4699.404297 1457.054565,4769.155762
	C1460.929443,4827.611328 1464.885010,4886.062500 1468.822998,4944.514648
	C1472.895142,5004.958008 1476.983765,5065.400879 1481.087402,5125.842285
	C1481.351807,5129.735840 1481.807251,5133.616699 1482.288208,5138.713867
	C1486.765381,5139.228516 1490.498047,5139.883301 1494.250977,5140.034180
	C1499.575684,5140.248047 1504.915405,5140.090820 1510.248657,5140.090820
	C2870.908447,5140.091309 4231.568359,5140.090820 5592.228027,5140.090820
	C5600.820801,5140.090820 5609.413574,5140.090820 5619.143555,5140.090820
	C5620.408691,5131.450684 5621.986328,5123.795410 5622.584961,5116.064453
	C5625.772461,5074.907715 5628.785645,5033.736816 5631.723145,4992.561523
	C5635.465820,4940.104004 5639.093750,4887.638184 5642.738770,4835.173828
	C5644.354004,4811.926270 5645.941895,4788.676270 5647.454590,4765.421875
	C5652.036621,4694.999512 5656.534668,4624.571289 5661.145996,4554.151367
	C5664.930176,4496.355957 5668.817383,4438.567383 5672.684082,4380.777344
	C5678.149902,4299.074707 5683.672363,4217.375977 5689.104004,4135.670410
	C5693.034180,4076.549805 5696.840332,4017.420898 5700.730469,3958.297363
	C5704.839355,3895.854980 5708.954590,3833.413086 5713.124023,3770.974854
	C5714.941895,3743.745361 5716.323730,3716.469238 5718.973633,3689.318604
	C5721.242188,3666.071777 5717.114746,3644.205811 5707.992676,3623.098389
	C5692.941895,3588.272461 5677.688477,3553.532959 5662.363770,3518.826416
	C5516.391113,3188.236816 5370.391113,2857.659424 5224.384277,2527.085205
	C5203.410645,2479.598877 5182.375977,2432.139648 5161.340332,2384.681152
	C5152.957031,2365.767578 5146.602051,2346.190186 5141.452637,2325.268799
	C5145.574219,2325.268799 5149.284668,2324.978516 5152.928223,2325.346924
	C5156.883789,2325.747070 5160.749023,2327.029053 5164.704102,2327.461670
	C5189.324707,2330.153564 5206.020996,2321.492920 5216.625977,2299.210449
	C5221.449707,2289.075928 5224.719727,2278.124756 5227.939453,2267.318604
	C5237.631836,2234.790283 5246.935547,2202.146240 5256.466797,2169.569580
	C5256.984375,2167.800781 5258.194336,2166.234619 5258.891602,2164.930176
	C5264.243164,2163.243652 5266.774902,2167.239014 5269.770020,2169.367676
	C5325.282715,2208.818604 5376.885254,2252.999512 5426.428711,2299.629639
	C5569.586914,2434.370850 5687.926270,2589.062744 5791.808594,2755.274414
	C5871.288574,2882.442383 5942.214355,3014.325684 6007.660156,3149.209717
	C6084.129395,3306.814697 6151.916504,3468.123047 6214.840820,3633.211914
M6129.619629,5315.522949
	C6125.822754,5318.226074 6122.015625,5320.915527 6118.229492,5323.633789
	C6035.427246,5383.083984 5952.561523,5442.445801 5869.868164,5502.047363
	C5844.623535,5520.241699 5816.846680,5528.285645 5785.697754,5528.278320
	C5504.378906,5528.215332 5223.059570,5528.648926 4941.740723,5528.786133
	C4709.077148,5528.899902 4476.413574,5528.854004 4243.750000,5528.801758
	C3269.773682,5528.584961 2295.797363,5528.339355 1321.820923,5528.104004
	C1317.154297,5528.102539 1312.463623,5528.395020 1307.826904,5528.020996
	C1301.213623,5527.487793 1294.578491,5526.793945 1288.060547,5525.586914
	C1267.396118,5521.759277 1248.925659,5512.848633 1231.937134,5500.665527
	C1155.055054,5445.530762 1078.204224,5390.352539 1001.256409,5335.309570
	C987.722168,5325.628906 973.820618,5316.457520 959.984741,5307.205566
	C957.405090,5305.481445 954.328796,5304.499512 950.290039,5302.620117
	C950.290039,5306.751953 950.015320,5309.263672 950.330811,5311.698730
	C955.978760,5355.291504 961.794739,5398.862305 967.379883,5442.462891
	C975.927063,5509.185059 984.289124,5575.932129 992.870605,5642.649902
	C993.433533,5647.026367 995.191345,5651.250000 996.374878,5655.478516
	C2700.669678,5655.478516 4403.873047,5655.478516 6107.536133,5655.478516
	C6108.613770,5651.182617 6109.971680,5647.428711 6110.464355,5643.564941
	C6124.863281,5530.592285 6139.180176,5417.608398 6153.418945,5304.615723
	C6153.541992,5303.643555 6152.425781,5302.515625 6151.277344,5300.261719
	C6144.766602,5304.802246 6138.361816,5309.268555 6129.619629,5315.522949
M6174.000000,4178.327637
	C6137.352539,4178.327637 6100.704102,4178.223145 6064.057129,4178.368164
	C6043.400879,4178.450195 6022.837402,4179.742676 6002.535156,4184.037598
	C5899.627441,4205.806641 5832.278320,4284.630859 5824.104980,4387.665039
	C5821.845703,4416.152832 5821.545898,4444.836914 5821.325684,4473.438477
	C5820.910645,4527.379395 5821.000488,4581.327637 5821.266113,4635.270508
	C5821.519043,4686.540039 5822.173340,4737.808594 5822.822266,4789.075195
	C5823.508301,4843.261719 5838.364746,4892.837402 5872.135254,4935.850098
	C5902.474121,4974.491699 5941.557129,4998.980957 5990.123535,5008.547363
	C6024.273926,5015.274414 6058.811523,5016.770508 6093.363770,5018.163574
	C6123.958496,5019.397461 6154.598145,5019.543457 6185.220703,5019.967285
	C6189.659668,5020.028809 6194.114258,5018.967773 6198.523926,5018.430176
	C6205.459473,4984.726562 6209.770020,4951.757324 6213.170410,4918.658691
	C6218.271973,4869.005371 6223.626465,4819.374512 6228.174316,4769.669922
	C6231.751953,4730.571777 6234.365234,4691.384277 6237.238770,4652.223633
	C6240.792480,4603.787598 6244.498047,4555.359375 6247.520508,4506.888672
	C6249.798340,4470.362793 6251.546875,4433.791504 6252.739258,4397.213867
	C6254.583008,4340.671875 6256.044922,4284.113281 6257.015625,4227.550293
	C6257.286133,4211.787598 6257.491211,4195.809082 6254.468262,4180.698730
	C6252.298340,4179.735352 6251.116699,4178.758789 6249.926758,4178.748535
	C6225.951172,4178.541504 6201.975098,4178.445801 6174.000000,4178.327637
M880.737732,4182.322266
	C870.212891,4182.735840 859.574768,4181.366211 849.735413,4183.288086
	C844.449951,4189.911621 845.131348,4196.686035 845.233826,4203.259766
	C845.700745,4233.213379 846.054626,4263.170410 846.842224,4293.116211
	C847.997314,4337.034668 849.113037,4380.958984 850.946411,4424.851562
	C852.585327,4464.089355 854.735413,4503.317383 857.460815,4542.494141
	C860.463074,4585.652344 864.278015,4628.754883 867.927979,4671.866211
	C870.904785,4707.025879 873.941223,4742.184082 877.344238,4777.305176
	C882.159790,4827.003418 887.283386,4876.671387 892.384766,4926.341797
	C894.628906,4948.191406 897.336365,4969.994141 899.425476,4991.857422
	C900.122559,4999.152832 903.539673,5004.214844 909.051514,5008.499512
	C915.557251,5013.556152 922.633789,5016.817383 931.032837,5016.791992
	C937.696411,5016.771484 944.361023,5016.834473 951.024109,5016.930176
	C980.981750,5017.361328 1010.940735,5018.223633 1040.895752,5018.101074
	C1056.839600,5018.036133 1072.943359,5017.416992 1088.689453,5015.104492
	C1195.299805,4999.446777 1276.956299,4913.255371 1279.612061,4799.717773
	C1280.141602,4777.075195 1280.325317,4754.418945 1280.296143,4731.770020
	C1280.154785,4621.812988 1279.973022,4511.855957 1279.616455,4401.899414
	C1279.491333,4363.283203 1270.996216,4326.570312 1252.125000,4292.682129
	C1220.976318,4236.746094 1175.100586,4199.686035 1111.617798,4187.262207
	C1089.531860,4182.940430 1066.745605,4181.129883 1044.208618,4180.423828
	C1008.937927,4179.317871 973.605103,4179.894043 938.302856,4180.220215
	C920.343811,4180.385742 902.394104,4181.559082 880.737732,4182.322266
z"/>
<path fill="#010101" opacity="1.000000" stroke="none"
	d="
M1399.527466,396.563568
	C1390.850464,370.949341 1384.728760,346.517792 1385.176636,320.806854
	C1386.154175,264.679657 1412.359985,224.548111 1462.383423,199.994919
	C1488.457275,187.196960 1516.534790,181.903671 1545.446045,180.822540
	C1548.774536,180.698074 1552.111572,180.805206 1555.444702,180.805206
	C2880.672119,180.805191 4205.899414,180.790558 5531.126953,180.898209
	C5561.114258,180.900635 5591.012695,182.925919 5619.966309,191.973724
	C5643.799316,199.421387 5665.817383,210.209839 5683.696777,227.974670
	C5712.208008,256.303223 5721.289551,291.437195 5718.095215,330.457092
	C5716.623047,348.448792 5712.051758,365.854309 5706.869141,383.101654
	C5665.697266,520.114624 5624.590332,657.146912 5583.384766,794.149658
	C5518.416992,1010.161255 5453.273926,1226.120361 5388.415527,1442.165039
	C5312.071289,1696.470093 5235.965332,1950.846924 5159.679688,2205.169678
	C5157.007812,2214.077393 5154.080566,2222.991943 5150.282227,2231.458740
	C5144.647461,2244.020020 5134.374512,2250.885742 5120.623535,2251.965088
	C5112.663086,2252.589600 5104.651367,2252.798096 5096.663086,2252.800537
	C4938.675781,2252.846191 4780.687988,2252.890625 4622.700684,2252.823975
	C4131.417480,2252.616699 3640.134521,2252.351318 3148.851562,2252.135742
	C3024.194824,2252.081055 2899.538330,2252.052979 2774.881592,2252.143066
	C2520.246094,2252.326904 2265.610596,2252.601807 2010.974976,2252.820312
	C2003.646118,2252.826416 1996.299316,2252.907959 1988.991455,2252.458008
	C1970.664551,2251.330322 1957.564453,2242.485352 1950.683960,2225.243164
	C1947.979614,2218.466309 1945.569336,2211.545654 1943.473389,2204.556152
	C1887.850830,2019.071045 1832.297729,1833.565186 1776.709961,1648.069824
	C1723.989380,1472.142822 1671.477905,1296.152832 1618.450684,1120.318359
	C1547.178467,883.984375 1475.499390,647.773132 1403.995361,411.509064
	C1402.645142,407.047974 1401.298462,402.585815 1399.527466,396.563568
M5150.068359,1515.951904
	C5177.963867,1422.198242 5205.978027,1328.479614 5233.714844,1234.679199
	C5253.715332,1167.043457 5273.500000,1099.343140 5293.074219,1031.583130
	C5302.034180,1000.566711 5304.614746,969.053711 5301.014648,936.726379
	C5293.029785,865.021545 5240.076660,775.775330 5146.786133,744.067749
	C5111.717285,732.148621 5075.728516,727.377136 5038.774414,727.380920
	C4045.484375,727.483459 3052.194580,727.462585 2058.904541,727.462830
	C2054.238037,727.462830 2049.571045,727.420471 2044.905273,727.478271
	C2013.987671,727.861450 1983.995605,733.360779 1954.944946,743.926331
	C1865.437744,776.479797 1800.072266,857.017700 1804.994873,970.152039
	C1806.506836,1004.900574 1812.367798,1038.965576 1822.343384,1072.273315
	C1885.537720,1283.272949 1948.641968,1494.299683 2012.182373,1705.195068
	C2024.835815,1747.192749 2046.505737,1784.527466 2076.112549,1817.041626
	C2095.042969,1837.830933 2116.496094,1855.773193 2139.613037,1871.703857
	C2190.355957,1906.672485 2246.005371,1928.845581 2307.328613,1936.938843
	C2329.233398,1939.829834 2351.135254,1940.736084 2373.100098,1940.723755
	C2487.084229,1940.659424 2601.068115,1940.135620 2715.052246,1940.124756
	C3391.022705,1940.060059 4066.993408,1940.082275 4742.963867,1940.148804
	C4760.987305,1940.150635 4778.837891,1939.473511 4796.677734,1936.326660
	C4841.442871,1928.430298 4885.033203,1916.906372 4926.163086,1897.110229
	C5001.828125,1860.692261 5055.395020,1803.640503 5082.811035,1724.162231
	C5106.242188,1656.235962 5126.970703,1587.377197 5150.068359,1515.951904
z"/>
<path fill="#010101" opacity="1.000000" stroke="none"
	d="
M3812.000000,5012.125488
	C3080.723633,5011.988770 2351.447266,5011.853027 1622.170898,5011.642578
	C1621.041138,5011.642090 1619.911499,5010.536133 1618.288330,5009.688965
	C1617.811035,5008.221680 1616.815186,5006.411621 1616.671509,5004.536133
	C1613.622559,4964.704590 1610.672974,4924.865723 1607.697266,4885.028809
	C1604.226685,4838.565918 1600.712524,4792.106445 1597.292725,4745.639160
	C1595.680054,4723.727051 1594.230591,4701.803223 1592.728882,4679.882812
	C1588.178589,4613.461914 1583.676025,4547.038086 1579.083496,4480.620117
	C1575.180054,4424.169922 1571.166260,4367.727539 1567.221313,4311.280273
	C1561.791260,4233.580566 1556.339600,4155.882324 1550.974609,4078.178223
	C1547.077148,4021.729248 1543.378418,3965.266357 1539.458496,3908.818848
	C1534.893555,3843.078857 1529.695557,3777.377686 1525.778687,3711.599854
	C1524.216797,3685.373047 1530.487305,3659.946289 1541.082275,3635.923584
	C1557.197632,3599.383789 1573.657104,3562.990967 1590.402832,3526.735352
	C1609.932617,3484.451904 1629.907471,3442.373779 1649.757935,3400.239014
	C1651.384155,3396.787354 1653.536011,3393.583252 1656.060547,3389.190674
	C1663.342041,3392.776123 1669.819092,3395.865479 1676.207886,3399.127441
	C1729.970337,3426.576660 1778.523682,3461.367676 1822.524902,3502.645996
	C1887.799683,3563.881104 1939.218506,3635.717773 1983.082642,3713.196045
	C2034.581421,3804.159180 2070.888428,3901.155762 2095.871094,4002.502441
	C2110.709473,4062.696777 2121.082031,4123.674316 2128.768311,4185.190918
	C2137.688965,4256.586914 2143.665283,4328.222656 2148.824219,4399.960449
	C2153.073730,4459.053711 2158.126465,4518.088379 2162.497314,4577.173340
	C2163.321533,4588.316895 2162.615479,4599.574219 2162.615479,4609.573242
	C2164.598633,4611.166504 2165.075439,4611.662109 2165.650879,4611.978516
	C2166.198486,4612.280273 2166.849365,4612.567871 2167.455078,4612.567871
	C3088.064697,4612.651855 4008.674561,4612.712402 4929.284180,4612.730469
	C4931.216309,4612.730469 4933.148926,4612.108887 4936.210938,4611.584473
	C4937.054688,4606.656250 4938.438965,4601.611328 4938.698730,4596.509277
	C4939.716797,4576.556641 4940.291504,4556.581055 4941.187988,4536.621094
	C4943.576660,4483.429199 4944.813965,4430.150391 4948.730957,4377.069336
	C4957.958984,4252.000000 4975.778320,4128.190430 5007.932129,4006.742188
	C5029.267578,3926.156982 5055.977539,3847.461182 5091.098633,3771.739990
	C5127.746094,3692.728027 5173.028809,3619.290527 5231.136230,3554.093994
	C5275.734375,3504.054688 5325.989258,3460.656006 5382.807617,3424.978516
	C5403.647461,3411.892822 5424.555664,3398.915039 5446.569336,3385.178955
	C5452.448730,3397.271729 5458.015137,3408.508057 5463.398438,3419.831299
	C5489.401855,3474.519531 5515.813965,3529.020752 5541.120117,3584.030273
	C5552.507812,3608.783936 5561.836426,3634.497803 5571.766602,3659.905762
	C5581.640625,3685.170898 5584.714355,3711.245361 5581.384766,3738.315674
	C5577.159668,3772.668213 5573.544922,3807.104248 5570.248535,3841.560059
	C5568.030762,3864.741943 5566.710938,3888.013184 5565.179688,3911.256836
	C5561.897949,3961.079346 5558.924805,4010.922607 5555.485352,4060.734131
	C5550.899902,4127.135742 5545.846680,4193.504395 5541.270508,4259.906738
	C5537.836914,4309.723145 5535.007812,4359.580566 5531.597168,4409.398438
	C5528.369629,4456.546875 5524.688477,4503.664551 5521.299316,4550.802246
	C5519.723633,4572.714355 5518.344238,4594.641602 5516.917969,4616.564453
	C5513.762695,4665.065430 5510.840332,4713.582031 5507.445312,4762.065918
	C5502.097168,4838.437012 5496.462891,4914.788574 5490.863770,4991.141602
	C5490.381836,4997.710449 5489.255371,5004.232422 5488.257812,5012.125488
	C4929.754395,5012.125488 4371.877441,5012.125488 3812.000000,5012.125488
z"/>
<path fill="#010101" opacity="1.000000" stroke="none"
	d="
M1963.998901,6294.342773
	C1832.009399,6294.342773 1702.019897,6294.520508 1572.030884,6294.302246
	C1363.415405,6293.951660 1154.800659,6293.215820 946.185242,6292.956543
	C909.957947,6292.911621 876.651428,6282.766602 844.545227,6267.234375
	C818.843140,6254.800293 803.188171,6233.994141 796.572754,6206.721680
	C793.617310,6194.537598 791.954712,6181.740723 791.871399,6169.208008
	C791.424194,6101.882812 791.732544,6034.553711 791.600098,5967.225586
	C791.570984,5952.431152 793.364868,5937.896973 797.792053,5923.891602
	C812.924072,5876.021484 846.255981,5848.631836 895.136658,5840.249023
	C910.145203,5837.675781 925.628540,5836.935059 940.894592,5836.933105
	C2026.805420,5836.786133 3112.716064,5836.687988 4198.626953,5836.866699
	C4527.227539,5836.920898 4855.828125,5838.102051 5184.428711,5838.162109
	C5432.372070,5838.207520 5680.315918,5837.307617 5928.259277,5836.786621
	C6005.575195,5836.624512 6082.891113,5836.359863 6160.207031,5836.068848
	C6184.431152,5835.978027 6208.093262,5839.467285 6230.648926,5848.285156
	C6278.421387,5866.961426 6304.829590,5902.652832 6312.238281,5952.932129
	C6314.474609,5968.105957 6314.028809,5983.274414 6313.615234,5998.642090
	C6312.413574,6043.252441 6313.051758,6087.911133 6312.916992,6132.551270
	C6312.856445,6152.510742 6312.735352,6172.368652 6308.964844,6192.202148
	C6298.796875,6245.689941 6262.743164,6284.146973 6199.498047,6292.041992
	C6186.326172,6293.685547 6172.941406,6294.252441 6159.654785,6294.253418
	C4761.769531,6294.349121 3363.884277,6294.342773 1963.998901,6294.342773
z"/>
<path fill="#010000" opacity="1.000000" stroke="none"
	d="
M5320.794922,3067.984863
	C5311.842285,3068.667969 5304.512207,3068.818848 5297.181641,3068.818848
	C4131.940918,3068.829346 2966.700439,3068.829346 1801.459961,3068.829346
	C1794.195435,3068.829346 1786.930908,3068.829102 1777.996582,3068.829102
	C1779.890015,3063.111572 1780.937500,3058.806885 1782.693237,3054.813477
	C1837.068115,2931.144287 1891.603271,2807.545654 1945.915283,2683.848877
	C1985.512451,2593.665283 2024.820190,2503.354492 2064.288330,2413.114258
	C2067.219238,2406.412842 2070.168457,2399.700439 2073.522461,2393.206787
	C2079.432373,2381.764648 2089.075684,2375.062500 2101.702637,2373.193848
	C2108.258057,2372.223389 2114.987061,2372.147705 2121.638184,2372.143555
	C2218.297119,2372.081055 2314.956055,2372.015137 2411.614990,2372.117676
	C2567.593506,2372.283203 2723.572266,2372.761230 2879.550781,2372.777832
	C3580.161621,2372.852295 4280.772461,2372.810059 4981.383301,2372.815918
	C4988.048340,2372.815918 4994.746094,2372.491943 5001.371582,2373.028320
	C5014.250488,2374.070557 5024.123535,2380.142334 5029.870605,2392.006348
	C5032.769043,2397.989502 5035.326172,2404.139404 5037.997559,2410.231445
	C5129.662598,2619.273926 5221.331055,2828.314697 5312.958496,3037.373779
	C5317.184082,3047.015625 5322.822266,3056.260742 5320.794922,3067.984863
z"/>
<path fill="#010101" opacity="1.000000" stroke="none"
	d="
M5987.674316,6672.000000
	C5987.674316,6716.655762 5988.008301,6759.315918 5987.483398,6801.965332
	C5987.312500,6815.872070 5986.121094,6830.005859 5983.282715,6843.593750
	C5975.389160,6881.384766 5951.829102,6904.125000 5913.978516,6911.985840
	C5898.252441,6915.250977 5882.362793,6916.199707 5866.316895,6916.187012
	C5737.016113,6916.082520 5607.714844,6916.128906 5478.414062,6916.128906
	C5413.763672,6916.128906 5349.112793,6916.286133 5284.463379,6915.988281
	C5272.551270,6915.933105 5260.507324,6914.854980 5248.764160,6912.847656
	C5205.571777,6905.467285 5174.326172,6870.582520 5174.523438,6822.717773
	C5174.896484,6732.115723 5173.631348,6641.508301 5173.234375,6550.902344
	C5173.020996,6502.249023 5173.195801,6453.593262 5173.195801,6404.938965
	C5173.195801,6399.016113 5173.196289,6393.093750 5173.196289,6385.942871
	C5177.790527,6385.234375 5181.464355,6384.428223 5185.176270,6384.160156
	C5189.154785,6383.872559 5193.169434,6384.091309 5197.168457,6384.091309
	C5452.437988,6384.090820 5707.707031,6384.091309 5962.976562,6384.091309
	C5970.253906,6384.091309 5977.531738,6384.091309 5984.507812,6384.091309
	C5989.606445,6390.797852 5987.572754,6397.683105 5987.582520,6404.066406
	C5987.716797,6492.710938 5987.674316,6581.355469 5987.674316,6672.000000
z"/>
<path fill="#010101" opacity="1.000000" stroke="none"
	d="
M1696.000488,6384.802246
	C1773.859863,6384.802246 1849.719238,6384.802246 1926.112061,6384.802246
	C1929.223999,6392.879883 1929.016968,6400.208984 1929.125610,6407.312012
	C1929.818726,6452.592773 1930.567383,6497.875488 1930.735474,6543.160156
	C1930.995239,6613.140625 1930.939941,6683.122559 1930.727295,6753.103516
	C1930.656494,6776.392090 1930.150024,6799.700195 1929.014648,6822.958984
	C1927.705566,6849.774414 1919.494507,6873.908203 1898.701050,6892.399414
	C1881.424316,6907.764648 1860.245972,6912.921875 1838.131470,6915.313477
	C1830.207764,6916.170898 1822.161011,6916.097656 1814.170410,6916.099121
	C1620.888550,6916.137695 1427.606445,6916.192871 1234.324829,6915.988770
	C1221.081909,6915.975098 1207.682739,6914.900391 1194.627563,6912.704590
	C1144.759277,6904.318359 1121.598877,6871.727539 1116.213135,6827.319824
	C1115.013794,6817.432129 1114.848022,6807.374023 1114.841064,6797.393555
	C1114.754150,6672.093750 1114.750977,6546.793457 1114.839966,6421.493652
	C1114.847900,6410.223145 1115.643433,6398.953613 1116.105835,6386.830078
	C1120.639648,6386.068359 1124.390625,6384.921875 1128.150513,6384.892090
	C1150.143188,6384.717773 1172.138184,6384.802246 1194.132324,6384.802246
	C1360.755005,6384.801758 1527.377686,6384.802246 1696.000488,6384.802246
z"/>
<path fill="#FCFCFC" opacity="1.000000" stroke="none"
	d="
M6130.788086,5314.628906
	C6138.361816,5309.268555 6144.766602,5304.802246 6151.277344,5300.261719
	C6152.425781,5302.515625 6153.541992,5303.643555 6153.418945,5304.615723
	C6139.180176,5417.608398 6124.863281,5530.592285 6110.464355,5643.564941
	C6109.971680,5647.428711 6108.613770,5651.182617 6107.536133,5655.478516
	C4403.873047,5655.478516 2700.669678,5655.478516 996.374878,5655.478516
	C995.191345,5651.250000 993.433533,5647.026367 992.870605,5642.649902
	C984.289124,5575.932129 975.927063,5509.185059 967.379883,5442.462891
	C961.794739,5398.862305 955.978760,5355.291504 950.330811,5311.698730
	C950.015320,5309.263672 950.290039,5306.751953 950.290039,5302.620117
	C954.328796,5304.499512 957.405090,5305.481445 959.984741,5307.205566
	C973.820618,5316.457520 987.722168,5325.628906 1001.256409,5335.309570
	C1078.204224,5390.352539 1155.055054,5445.530762 1231.937134,5500.665527
	C1248.925659,5512.848633 1267.396118,5521.759277 1288.060547,5525.586914
	C1294.578491,5526.793945 1301.213623,5527.487793 1307.826904,5528.020996
	C1312.463623,5528.395020 1317.154297,5528.102539 1321.820923,5528.104004
	C2295.797363,5528.339355 3269.773682,5528.584961 4243.750000,5528.801758
	C4476.413574,5528.854004 4709.077148,5528.899902 4941.740723,5528.786133
	C5223.059570,5528.648926 5504.378906,5528.215332 5785.697754,5528.278320
	C5816.846680,5528.285645 5844.623535,5520.241699 5869.868164,5502.047363
	C5952.561523,5442.445801 6035.427246,5383.083984 6118.229492,5323.633789
	C6122.015625,5320.915527 6125.822754,5318.226074 6130.788086,5314.628906
z"/>
<path fill="#FEFEFE" opacity="1.000000" stroke="none"
	d="
M6175.999512,4178.327637
	C6201.975098,4178.445801 6225.951172,4178.541504 6249.926758,4178.748535
	C6251.116699,4178.758789 6252.298340,4179.735352 6254.468262,4180.698730
	C6257.491211,4195.809082 6257.286133,4211.787598 6257.015625,4227.550293
	C6256.044922,4284.113281 6254.583008,4340.671875 6252.739258,4397.213867
	C6251.546875,4433.791504 6249.798340,4470.362793 6247.520508,4506.888672
	C6244.498047,4555.359375 6240.792480,4603.787598 6237.238770,4652.223633
	C6234.365234,4691.384277 6231.751953,4730.571777 6228.174316,4769.669922
	C6223.626465,4819.374512 6218.271973,4869.005371 6213.170410,4918.658691
	C6209.770020,4951.757324 6205.459473,4984.726562 6198.523926,5018.430176
	C6194.114258,5018.967773 6189.659668,5020.028809 6185.220703,5019.967285
	C6154.598145,5019.543457 6123.958496,5019.397461 6093.363770,5018.163574
	C6058.811523,5016.770508 6024.273926,5015.274414 5990.123535,5008.547363
	C5941.557129,4998.980957 5902.474121,4974.491699 5872.135254,4935.850098
	C5838.364746,4892.837402 5823.508301,4843.261719 5822.822266,4789.075195
	C5822.173340,4737.808594 5821.519043,4686.540039 5821.266113,4635.270508
	C5821.000488,4581.327637 5820.910645,4527.379395 5821.325684,4473.438477
	C5821.545898,4444.836914 5821.845703,4416.152832 5824.104980,4387.665039
	C5832.278320,4284.630859 5899.627441,4205.806641 6002.535156,4184.037598
	C6022.837402,4179.742676 6043.400879,4178.450195 6064.057129,4178.368164
	C6100.704102,4178.223145 6137.352539,4178.327637 6175.999512,4178.327637
z"/>
<path fill="#FEFEFE" opacity="1.000000" stroke="none"
	d="
M882.588989,4182.299316
	C902.394104,4181.559082 920.343811,4180.385742 938.302856,4180.220215
	C973.605103,4179.894043 1008.937927,4179.317871 1044.208618,4180.423828
	C1066.745605,4181.129883 1089.531860,4182.940430 1111.617798,4187.262207
	C1175.100586,4199.686035 1220.976318,4236.746094 1252.125000,4292.682129
	C1270.996216,4326.570312 1279.491333,4363.283203 1279.616455,4401.899414
	C1279.973022,4511.855957 1280.154785,4621.812988 1280.296143,4731.770020
	C1280.325317,4754.418945 1280.141602,4777.075195 1279.612061,4799.717773
	C1276.956299,4913.255371 1195.299805,4999.446777 1088.689453,5015.104492
	C1072.943359,5017.416992 1056.839600,5018.036133 1040.895752,5018.101074
	C1010.940735,5018.223633 980.981750,5017.361328 951.024109,5016.930176
	C944.361023,5016.834473 937.696411,5016.771484 931.032837,5016.791992
	C922.633789,5016.817383 915.557251,5013.556152 909.051514,5008.499512
	C903.539673,5004.214844 900.122559,4999.152832 899.425476,4991.857422
	C897.336365,4969.994141 894.628906,4948.191406 892.384766,4926.341797
	C887.283386,4876.671387 882.159790,4827.003418 877.344238,4777.305176
	C873.941223,4742.184082 870.904785,4707.025879 867.927979,4671.866211
	C864.278015,4628.754883 860.463074,4585.652344 857.460815,4542.494141
	C854.735413,4503.317383 852.585327,4464.089355 850.946411,4424.851562
	C849.113037,4380.958984 847.997314,4337.034668 846.842224,4293.116211
	C846.054626,4263.170410 845.700745,4233.213379 845.233826,4203.259766
	C845.131348,4196.686035 844.449951,4189.911621 849.735413,4183.288086
	C859.574768,4181.366211 870.212891,4182.735840 882.588989,4182.299316
z"/>
<path fill="#FFFFFF" opacity="1.000000" stroke="none"
	d="
M5149.481445,1517.441406
	C5126.970703,1587.377197 5106.242188,1656.235962 5082.811035,1724.162231
	C5055.395020,1803.640503 5001.828125,1860.692261 4926.163086,1897.110229
	C4885.033203,1916.906372 4841.442871,1928.430298 4796.677734,1936.326660
	C4778.837891,1939.473511 4760.987305,1940.150635 4742.963867,1940.148804
	C4066.993408,1940.082275 3391.022705,1940.060059 2715.052246,1940.124756
	C2601.068115,1940.135620 2487.084229,1940.659424 2373.100098,1940.723755
	C2351.135254,1940.736084 2329.233398,1939.829834 2307.328613,1936.938843
	C2246.005371,1928.845581 2190.355957,1906.672485 2139.613037,1871.703857
	C2116.496094,1855.773193 2095.042969,1837.830933 2076.112549,1817.041626
	C2046.505737,1784.527466 2024.835815,1747.192749 2012.182373,1705.195068
	C1948.641968,1494.299683 1885.537720,1283.272949 1822.343384,1072.273315
	C1812.367798,1038.965576 1806.506836,1004.900574 1804.994873,970.152039
	C1800.072266,857.017700 1865.437744,776.479797 1954.944946,743.926331
	C1983.995605,733.360779 2013.987671,727.861450 2044.905273,727.478271
	C2049.571045,727.420471 2054.238037,727.462830 2058.904541,727.462830
	C3052.194580,727.462585 4045.484375,727.483459 5038.774414,727.380920
	C5075.728516,727.377136 5111.717285,732.148621 5146.786133,744.067749
	C5240.076660,775.775330 5293.029785,865.021545 5301.014648,936.726379
	C5304.614746,969.053711 5302.034180,1000.566711 5293.074219,1031.583130
	C5273.500000,1099.343140 5253.715332,1167.043457 5233.714844,1234.679199
	C5205.978027,1328.479614 5177.963867,1422.198242 5149.481445,1517.441406
z"/>
</svg>
