<?xml version="1.0" encoding="utf-8"?>
<!-- Generator: Adobe Illustrator 27.5.0, SVG Export Plug-In . SVG Version: 6.00 Build 0)  -->
<svg version="1.1" id="Layer_1" xmlns="http://www.w3.org/2000/svg" xmlns:xlink="http://www.w3.org/1999/xlink" x="0px" y="0px"
	 viewBox="0 0 1067.9 333" style="enable-background:new 0 0 1067.9 333;" xml:space="preserve">
<style type="text/css">
	.st0{fill:#FFFFFF;}
	.st1{fill:none;stroke:#2A2B2D;stroke-width:6.63;stroke-miterlimit:10;stroke-dasharray:0,19.88;}
</style>
<g>
	<path class="st0" d="M69.8,264.9c6.8-46.5,14.2-93.5,21.9-139.7l0.8-4.7l4.8-0.7c15.9-2.3,23.8-3.4,39.8-5.4l4.8-0.6l2,4.4
		c19.9,42.5,39.6,85.9,58.5,128.8l3.6,8.2l-8.9,1c-10.4,1.2-15.7,1.8-26.1,3.1l-4.8,0.6l-2-4.4c-12.7-28.1-26.2-57.1-40.2-86.6
		c-5.4,31.6-10.4,63.2-15.1,94.1l-0.7,4.8l-4.8,0.7c-10.4,1.5-15.6,2.4-26,4l-8.8,1.4L69.8,264.9L69.8,264.9z"/>
	<path class="st0" d="M257.6,252.1c-8.9,0-17.3-1.6-24.8-4.6c-9.8-4-17.9-10.3-24.1-18.6c-6.2-8.4-10-18.6-11.3-30.4l-9.9-90
		l6.5-0.8c10.8-1.3,16.2-1.9,27.1-3.1l6.6-0.7l9.1,90.2c0.4,3.5,1.3,6.6,2.7,9.3c1.5,2.7,3.3,4.9,5.6,6.7s4.8,3.1,7.6,3.9
		c2.1,0.6,4.4,0.9,6.7,0.9c0.8,0,1.6,0,2.5-0.1c3.4-0.3,6.3-1.1,9-2.5c2.7-1.4,4.9-3.1,6.8-5.3c1.9-2.2,3.2-4.7,4.2-7.6
		c0.9-2.9,1.2-6.1,1-9.6l-7.3-90.3L282,99c10.9-0.9,16.3-1.3,27.2-2.1l6.6-0.5l6.5,90.6c0.9,11.9-1,22.6-5.6,32
		c-4.6,9.4-11.4,17-20.3,22.7c-8.7,5.6-19.2,9-31.1,10C262.6,252,260,252.1,257.6,252.1L257.6,252.1z"/>
	<path class="st0" d="M371.6,130.4c-13.6,0.7-22.1,1.2-37.6,2.3l-6.6,0.4L325,96.3l6.6-0.4c38.6-2.6,77.7-4.4,116.3-5.4l6.6-0.2
		l1,36.9l-6.6,0.2c-15.4,0.4-24,0.7-37.6,1.3l4.7,110.9l-6.6,0.3c-10.2,0.4-15.3,0.7-25.5,1.2l-6.6,0.3L371.6,130.4L371.6,130.4z"/>
	<path class="st0" d="M530.2,238.8c-14.6,0-27.4-3.2-38.2-9.4c-11-6.3-19.6-15.3-25.7-26.8c-6.1-11.4-9.3-24.6-9.7-39.5
		c-0.4-15,2.3-28.5,8-40c5.8-11.8,14.5-21.2,25.7-27.8c11.2-6.6,24.6-10,39.9-10c15.4,0,28.8,3.3,39.9,9.9
		c11.2,6.6,19.9,15.9,25.8,27.7c5.7,11.5,8.5,25,8.1,40c-0.3,14.9-3.5,28.2-9.6,39.6c-6.1,11.5-14.7,20.5-25.7,26.9
		c-10.8,6.3-23.7,9.5-38.4,9.5L530.2,238.8L530.2,238.8z M529.4,122.3c-7.2,0-13.3,1.5-17.9,4.6c-4.8,3.1-8.2,7.5-10.6,13.3
		c-2.5,6.1-3.7,13.6-3.6,22c0.1,8.4,1.5,15.7,4.2,21.7c2.5,5.7,6,9.9,10.7,13c4.7,3,10.8,4.6,18.2,4.7h0.6c7.1,0,12.8-1.4,17.3-4.4
		c4.7-3.1,8.2-7.4,10.7-13.2c2.6-6.2,4-13.6,4.1-22c0.1-8.4-1.1-15.8-3.6-21.8c-2.4-5.7-5.9-10-10.7-13.1
		c-4.8-3.1-11.1-4.8-18.7-4.9L529.4,122.3L529.4,122.3z"/>
	<path class="st0" d="M681.2,243.4c-1.3,0-2.7,0-4.1-0.1c-11.9-0.6-22.5-3.5-31.5-8.7c-9.2-5.3-16.3-12.6-21.3-21.8
		c-5-9.1-7.3-19.8-7-31.7l2.5-90.6l6.5,0.1c10.9,0.2,16.3,0.4,27.2,0.7l6.6,0.2l-3.4,90.6c-0.1,3.5,0.3,6.8,1.4,9.6
		c1.1,2.9,2.6,5.3,4.6,7.4c2,2.1,4.3,3.7,7,4.9c2.8,1.2,5.7,1.9,9,2.1c0.5,0,0.9,0,1.4,0c2.8,0,5.5-0.4,7.9-1.3
		c2.8-1,5.3-2.4,7.4-4.3c2.2-1.9,3.8-4.2,5.2-6.9c1.3-2.7,2.1-5.9,2.3-9.4l5.2-90.5l6.6,0.4c10.9,0.6,16.3,1,27.2,1.7l6.6,0.4
		l-6,90.6c-0.8,11.9-4.2,22.2-10,30.9c-5.8,8.6-13.7,15.2-23.2,19.7C700.9,241.4,691.5,243.4,681.2,243.4L681.2,243.4z"/>
	<path class="st0" d="M869.6,255.4c-11.5-1.3-17.2-1.9-28.8-3.1l-4.1-0.4l-1.4-3.9c-6.7-18.4-10.8-29.3-16.3-43.8
		c-6.5-0.6-11.6-1.1-18.2-1.6l-3.9,45.5l-6.5-0.6c-10.2-0.9-15.3-1.3-25.5-2.1l-6.5-0.5l11.2-147.5l6.5,0.5
		c24,1.8,35.8,2.8,59.8,5.2c1.4,0.1,3.4,0.4,5.8,0.7c2.6,0.4,4.9,0.8,7,1.4c9.2,2.3,16.9,6.2,22.6,11.6c5.8,5.4,9.8,12,12,19.5
		c2.1,7.2,2.7,15.1,1.7,23.4c-1.4,12.5-6,23.1-13.5,31.5c-3.4,3.7-7.4,6.8-12,9c5.7,15.1,10,27,16.9,46.4l3.5,9.9L869.6,255.4
		L869.6,255.4z M804,165.8c8.5,0.7,14.5,1.3,24.6,2.3c1.2,0.1,2.5,0.2,3.9,0.2h0.1c1.4,0,2.3-0.1,3.1-0.2c2.4-0.4,4.1-1.1,5.3-2.2
		c1.4-1.3,2.5-2.8,3.1-4.5c0.8-2.1,1.3-4.1,1.5-5.9c0.2-1.8,0.1-3.9-0.3-6c-0.3-1.8-1-3.4-2.1-5c-0.9-1.3-2.5-2.4-4.7-3.2
		c-1-0.4-2.1-0.7-3.2-0.9c-1.4-0.2-2.8-0.4-4-0.6c-10.2-1-16.3-1.5-24.9-2.3L804,165.8L804,165.8z"/>
	<path class="st0" d="M952.5,268c-4,0-8-0.3-12-0.8c-10.8-1.5-20.4-4.8-28.7-9.7c-8.4-5.1-15.2-11.7-20.1-19.7
		c-5-8.1-7.7-17.5-8-27.8l-0.2-6.6l6.6-0.2c11-0.3,16.5-0.4,27.5-0.6l6-0.1l0.7,5.9c0.7,6.4,3.1,11.3,7.3,15.2
		c4.4,4,9.5,6.4,15.8,7.3c1.6,0.2,3.2,0.3,4.7,0.3c1.9,0,3.8-0.2,5.8-0.5c3.2-0.6,5.7-1.6,7.8-3.1c1.5-1.1,2.3-2.5,2.6-4.5
		c0.1-0.7,0.1-1.3,0-2c-0.1-0.5-0.3-0.9-0.6-1.4c-0.2-0.3-0.8-1.1-2-2.1c-1.2-0.9-2.9-1.9-4.9-2.9c-13.5-6.1-20.3-9.1-34-15
		c-2.7-1.1-5.8-2.6-9.4-4.6c-3.9-2.1-7.6-4.9-11-8.2c-3.7-3.6-6.6-8.1-8.6-13.4c-2.1-5.4-2.7-12-1.8-19.4
		c1.3-10.5,5.2-19.1,11.7-25.4c6.3-6.2,14.4-10.5,23.9-12.6c5.3-1.2,10.8-1.8,16.5-1.8c4.2,0,8.5,0.3,12.9,1
		c10.4,1.5,19.7,4.7,27.6,9.2c8,4.7,14.5,10.8,19.3,18.2c4.8,7.4,7.7,16,8.7,25.7l0.8,7.2l-7.3,0c-11.6,0.1-17.4,0.1-29,0.3
		l-6.1,0.1l-0.5-6.1c-0.3-3.3-1.2-6.1-2.9-8.6c-1.8-2.6-4-4.6-6.8-6.2c-2.9-1.7-6.1-2.8-9.5-3.4c-1.7-0.3-3.3-0.4-4.9-0.4
		s-3.2,0.1-4.7,0.4c-2.8,0.5-5.1,1.5-6.8,2.8c-1.2,0.9-1.8,1.9-2,3.4c-0.2,1.4,0.1,2.1,0.5,2.6c1.1,1.4,2.6,2.6,4.5,3.7
		c2.4,1.4,4.9,2.6,7.5,3.6c9.3,3.9,14,5.8,23.2,9.7c3.6,1.5,7.6,3.4,11.8,5.6c4.6,2.4,9,5.5,12.9,9.2c4.3,4,7.6,8.9,9.8,14.5
		c2.3,5.8,2.8,12.8,1.6,20.7c-1.3,8.2-4.3,15.3-8.9,21.1c-4.5,5.6-10,10-16.6,13.2c-6.2,3-13.2,5-20.5,5.8
		C959.2,267.8,955.8,268,952.5,268L952.5,268L952.5,268z"/>
	<ellipse class="st0" cx="528.9" cy="259.3" rx="45" ry="7.2"/>
</g>
<path class="st1" d="M558.8,113.4c-8.2-4.8-18.1-7.3-29.6-7.2s-21.4,2.5-29.6,7.3c-8.2,4.9-14.5,11.6-18.7,20.2
	c-4.2,8.6-6.2,18.6-5.9,29.9c0.3,11.3,2.7,21.2,7.2,29.6s10.8,14.9,18.8,19.6c8,4.6,17.5,6.9,28.4,6.9s20.4-2.3,28.4-7
	s14.2-11.2,18.7-19.6s6.9-18.3,7.1-29.6s-1.7-21.3-6-29.9S567,118.3,558.8,113.4L558.8,113.4z"/>
</svg>
