<?xml version="1.0" encoding="UTF-8"?>
<svg xmlns="http://www.w3.org/2000/svg" version="1.1" viewBox="0 0 7680 3000">
  <defs>
    <style>
      .cls-1 {
        fill: #010101;
      }

      .cls-2 {
        fill: none;
        stroke: #fff;
        stroke-dasharray: 158.4 158.4;
        stroke-miterlimit: 10;
        stroke-width: 52.8px;
      }

      .cls-3 {
        fill: #020202;
      }
    </style>
  </defs>
  <!-- Generator: Adobe Illustrator 28.7.1, SVG Export Plug-In . SVG Version: 1.2.0 Build 142)  -->
  <g>
    <g id="Layer_1">
      <g>
        <path class="cls-3" d="M84,2838.6c53.9-368.9,112.4-742.2,173.7-1109.6l6.3-37.6,37.8-5.4c126.2-18.1,189.4-26.7,315.8-43.1l37.9-4.9,16.1,34.6c157.7,337.8,314.1,681.8,464.8,1022.3l28.7,64.9-70.5,8.1c-83,9.5-124.4,14.5-207.3,24.8l-38.1,4.8-15.9-35c-100.8-222.8-208-453.4-319.4-687.4-42.6,251.3-82.7,502-119.5,747.2l-5.7,38.1-38.2,5.7c-82.7,12.3-124,18.6-206.7,31.7l-70.1,11.1,10.3-70.2Z"/>
        <path class="cls-3" d="M1575,2737.3c-70.8,0-137.1-12.4-196.9-36.8-77.8-31.7-142.2-81.4-191.4-147.9-49.3-66.5-79.5-147.8-89.9-241.6l-79-715,51.5-6c86-10.1,129-15,215.1-24.3l52.2-5.6,72.5,716.4c2.8,27.8,10.1,52.7,21.6,73.8,11.7,21.4,26.1,38.8,44.1,53.2,18.1,14.4,38,24.6,60.8,31.1,16.9,4.9,34.8,7.3,53,7.3s13.1-.3,19.7-.9c26.6-2.4,50-8.9,71.5-19.8,21.4-10.8,38.9-24.5,53.9-41.9,14.9-17.3,25.7-37,33.1-60.1,7.4-23,10-48.6,7.8-76.1l-57.8-717.4,52-4.2c86.2-6.9,129.4-10.2,215.7-16.4l52-3.7,51.4,719.3c6.7,94.1-8.3,179.6-44.8,254-36.4,74.2-90.7,134.8-161.5,180-69.4,44.3-152.4,71.2-246.7,79.7-20.4,1.9-40.6,2.8-60.1,2.8"/>
        <path class="cls-3" d="M2480.5,1771.3c-107.9,5.6-175.9,9.8-298.7,17.9l-52.1,3.5-19.3-292.6,52.1-3.5c306.3-20.2,617-34.7,923.5-43.1l52.2-1.4,8,293.1-52.2,1.5c-122.6,3.3-190.7,5.6-298.9,10l37.2,880.7-52.2,2.2c-81,3.4-121.4,5.3-202.3,9.4l-52.1,2.7-45.1-880.3Z"/>
        <path class="cls-3" d="M3739.5,2631.5c-115.7,0-217.8-25.1-303.5-74.7-86.9-50.3-155.7-121.8-204.4-212.8-48.2-90.1-74.2-195.7-77.1-313.9-3-119.4,18.4-226.4,63.5-317.9,46.2-93.7,114.8-167.9,204-220.6,88.8-52.5,195.4-79.2,316.9-79.4,122.3,0,228.5,26.4,317.2,78.4,89.3,52.4,158.1,126.4,204.6,220,45.4,91.3,67.1,198.2,64.5,317.7-2.5,118.2-28.1,223.8-76,314.2-48.4,91.1-117,162.9-203.7,213.4-85.9,50.1-188.5,75.5-304.6,75.6h-1.4ZM3733.5,1706.8c-57.6,0-105.4,12.2-142.1,36.3-38,24.9-65.5,59.5-84.3,105.7-19.8,48.9-29.3,107.7-28.3,174.8,1,66.8,12.1,124.9,33,172.6,19.7,45,47.5,78.7,85.1,103.1,37.2,24.1,85.7,36.7,144.1,37.5h5.1c56.3,0,101.2-11.4,137.3-35,37.4-24.4,65.1-58.6,84.7-104.5,20.9-48.9,31.8-107.6,32.6-174.5.8-67-8.9-125.2-28.7-173-18.9-45.3-46.6-79.4-84.7-104.2-38.3-25-88.4-38-148.8-38.8h-5.1Z"/>
        <path class="cls-3" d="M4938.8,2667.7c-10.7,0-21.5-.3-32.5-.8-94.5-4.5-178.5-27.7-249.7-69-72.6-42.1-129.5-100.3-169.1-172.9-39.6-72.7-58.3-157.3-55.7-251.7l20.2-719,51.8,1.1c86.4,1.8,129.7,2.9,216.1,5.5l52.5,1.6-26.7,719.5c-1.1,28,2.7,53.6,11.3,76.1,8.6,22.8,20.4,42,36.3,58.7,15.9,16.8,34.2,29.6,55.8,39.2,22.1,9.9,45.3,15.2,71.1,16.4,3.7.2,7.3.2,10.9.2,22.2,0,43.3-3.3,62.6-10,22.6-7.8,41.9-18.9,59-34.1,17.2-15.1,30.6-33.1,41.1-54.9,10.5-21.8,16.6-46.8,18.2-74.4l41.4-718.4,52.1,3c86.4,4.9,129.6,7.6,215.9,13.4l52.1,3.5-48,719.6c-6.3,94.2-33,176.7-79.3,245.3-46.2,68.5-108.4,121.1-184.6,156.2-66.3,30.4-141.2,45.8-222.7,45.8"/>
        <path class="cls-3" d="M6435.2,2763c-91.3-10.4-136.9-15.3-228.3-24.7l-32.4-3.3-11.2-30.6c-53.5-146.3-85.7-232.7-129.6-347.6-51.6-4.9-92.3-8.6-144.7-13.1l-30.7,361.4-52-4.4c-80.8-6.8-121.2-10.1-202.1-16.3l-52-3.9,89-1171.3,52,4c190.7,14.5,283.9,22.5,474.9,40.8,11.4,1.1,26.8,3,46.1,5.6,20.5,2.9,39.2,6.6,55.6,11.1,73.1,18.4,134,49.5,179.6,92.1,46,42.9,78.1,95,95.3,154.7,16.5,57,21.1,119.5,13.6,185.8-11.2,99.4-47.2,183.6-107.1,250.1-26.7,29.6-58.6,53.6-95.2,71.7,45,120.2,79.2,214.2,134.3,368.5l28.1,78.9-83.2-9.4ZM5913.7,2051.6c67.7,5.9,115.4,10.2,195.5,17.9,9.4.9,19.7,1.5,31.1,1.7h1c11.1,0,18.3-.6,24.8-1.7,18.8-3,32.6-8.9,41.8-17.5,11.4-10.6,19.4-22.4,24.7-35.9,6.4-16.4,10.4-32.1,11.8-46.5,1.5-14.5.8-30.7-2.1-48-2.4-14.2-8-27.3-17-39.9-7.4-10.3-20-18.8-37.5-25.3-7.9-3-16.4-5.3-25.8-6.9-11.4-2-21.8-3.5-31.4-4.4-81-7.8-129.2-12.2-197.8-18.1l-19.1,224.8Z"/>
        <path class="cls-3" d="M7093.1,2863c-31.5,0-63.7-2.2-95.5-6.7-85.6-11.8-162.3-37.9-227.9-77.2-67-40.2-120.8-92.9-159.8-156.8-39.5-64.6-60.9-138.8-63.7-220.4l-1.8-52.6,52.6-1.4c87.2-2.3,130.9-3.2,218.3-4.6l47.3-.8,5.4,47c5.8,50.4,24.9,89.8,58.2,120.4,34.9,32.1,75.8,51,125.1,57.8,12.5,1.7,25,2.6,37.3,2.6s30.6-1.3,45.7-4c25-4.4,45.3-12.6,62-24.9,12-8.9,18.4-19.8,20.7-35.5.8-5.4.8-10.5,0-15.7-.6-3.7-2.2-7.5-4.7-11.6-1.7-2.7-6-8.3-16.2-16.4-9.5-7.4-22.8-15.1-39.2-22.7-107.2-48.2-161.4-72.1-270.2-119.4-21.2-9-45.8-21-74.7-36.5-30.9-16.6-60.3-38.7-87.6-65.5-29.2-28.7-52.1-64.6-68.2-106.8-16.5-43.2-21.3-94.9-14.2-153.8,10-83.3,41.4-151.3,93.1-202,50.4-49.4,114.1-83.1,189.4-100.1,41.9-9.4,86-14.2,131.1-14.2s67.7,2.6,102.3,7.8c82.5,12.2,156.3,36.9,219.4,73.5,63.9,37,115.5,85.6,153.4,144.5,37.7,58.5,61.1,127.2,69.4,204.1l6.2,57.5-57.8.3c-92,.5-138,.9-229.9,2.3l-48.6.8-4.2-48.4c-2.3-26.6-9.9-48.9-23.3-68.2-14.3-20.6-32-36.8-54.2-49.6-23.2-13.4-48.7-22.5-75.6-27.1-13.3-2.2-26.3-3.4-38.9-3.4s-25.3,1.1-37.4,3.5c-22,4.1-40.3,11.6-54.2,22.3-9.6,7.3-14.3,15.3-15.7,26.6-1.5,11.3,1.1,16.5,4.2,20.3,8.5,10.9,20.4,20.7,35.5,29,19.1,10.7,39.2,20.3,59.8,28.6,74.2,30.7,111,46.1,184.3,77.2,28.8,12.1,60.4,27.2,93.8,44.7,36.6,19.2,71.1,43.7,102.6,72.8,34,31.5,60.2,70.3,77.9,115.5,18.2,46.4,22.5,101.6,12.6,164.2-10.4,65.4-34,121.7-70.4,167.3-35.5,44.6-79.8,79.8-131.5,104.6-49.6,23.8-104.5,39.4-163.2,46.3-26,3.1-52.5,4.7-78.8,4.7"/>
        <path class="cls-2" d="M3965.2,1627.2c-65.6-38.5-144.5-57.9-235.9-57.8-91.4.1-170.2,19.8-235.7,58.5-65.5,38.7-115.2,92.6-149.1,161.3-33.9,68.7-49.4,148.2-47.2,238.3,2.2,90.1,21.6,168.6,57.5,235.8,36,67.2,85.9,119.1,149.7,156,63.8,36.9,139,55.1,226.2,55,87.1-.1,162.3-18.6,226-55.7,63.7-37.1,113.5-89.2,149.2-156.5,35.7-67.3,54.9-145.9,56.8-236,1.9-90.1-13.9-169.5-48-238.1-34.1-68.6-84-122.4-149.6-160.9Z"/>
        <path class="cls-1" d="M4086.9,2794.5c0,31.6-159.8,57.2-357,57.2s-357-25.6-357-57.2,159.8-57.2,357-57.2,357,25.6,357,57.2"/>
      </g>
    </g>
  </g>
</svg>
