<?xml version="1.0" encoding="UTF-8"?>
<svg xmlns="http://www.w3.org/2000/svg" version="1.1" viewBox="0 0 93 112">
  <defs>
    <style>
      .cls-1 {
        fill: #3a3a3a;
      }
    </style>
  </defs>
  <!-- Generator: Adobe Illustrator 28.6.0, SVG Export Plug-In . SVG Version: 1.2.0 Build 709)  -->
  <g>
    <g id="OBJECTS">
      <g>
        <path class="cls-1" d="M33.3,107.6c.7,0,1.5-.2,2.1-.5,2.3-1.2,3.2-4,2-6.3L14.2,56.5,37.4,12.2c1.2-2.3.3-5.1-2-6.3-2.3-1.2-5.1-.3-6.3,2L4.9,54.3c-.7,1.3-.7,3,0,4.3l24.3,46.5c.8,1.6,2.4,2.5,4.1,2.5Z"/>
        <path class="cls-1" d="M57.6,107.6c.7,0,1.5-.2,2.1-.5,2.3-1.2,3.2-4,2-6.3l-23.2-44.3L61.7,12.2c1.2-2.3.3-5.1-2-6.3-2.3-1.2-5.1-.3-6.3,2l-24.3,46.5c-.7,1.3-.7,3,0,4.3l24.3,46.5c.8,1.6,2.4,2.5,4.1,2.5Z"/>
        <path class="cls-1" d="M81.9,107.6c.7,0,1.5-.2,2.1-.5,2.3-1.2,3.2-4,2-6.3l-23.2-44.3,23.2-44.3c1.2-2.3.3-5.1-2-6.3-2.3-1.2-5.1-.3-6.3,2l-24.3,46.5c-.7,1.3-.7,3,0,4.3l24.3,46.5c.8,1.6,2.4,2.5,4.1,2.5Z"/>
      </g>
    </g>
  </g>
</svg>